<svg xmlns="http://www.w3.org/2000/svg" id="Layer_2" viewBox="0 0 280.32 145.17"><g id="Artwork"><circle cx="72.59" cy="72.59" r="72.59" style="fill:#fff; stroke-width:0px;"></circle><path d="M45.67,89.36c-.72-.31-1.45-.57-2.05-1.12-.24-.22-.64-.6-.97-.22-.3.35.11.69.32.96,1.68,2.15,1.96,4.59,1.45,7.17-.27,1.35-.76,1.53-1.86.71-2.01-1.49-2.73-3.66-3.06-6.02-.04-.3.13-.76-.28-.86-.39-.09-.49.37-.67.62-1.44,1.99-5.49,3.49-7.98,2.93-.77-.17-1.06-.62-1.03-1.43.06-1.62-.11-1.7-1.46-.97-.9.48-1.22-.27-1.48-.82-.65-1.35-.11-2.67.25-3.99.18-.67.69-1.53.45-1.98-.29-.55-1.17.1-1.83.04-2.14-.2-4.23-.74-6.39-.77-.64,0-.46-.45-.29-.79.56-1.09,1.29-2.11,2.45-2.54,2.16-.81,4.4-1.13,6.66-.32.44.16.87.31,1.32.16.45-.15.82-.55.32-.9-1.66-1.16-1.52-3.02-1.94-4.67-.1-.39.03-.91-.47-1.06-.52-.16-.83.29-1.13.61-1.14,1.2-2.21,2.48-3.42,3.6-.7.65-1.51,1.77-2.64.91-1.06-.81-.72-2.02-.27-3.08.92-2.17,2.6-3.7,4.42-5.1.35-.27.93-.52.79-1-.16-.56-.82-.49-1.29-.44-1.17.11-1.83-.55-2.44-1.39-.69-.96-1.31-1.97-2.38-2.59-.13-.08-.32-.27-.3-.36.27-1.29-.8-2.12-1.07-3.22-.16-.66.11-.99.66-1.08,1.52-.25,1.07-.93.36-1.62-.83-.81-1.11-1.82-1.12-2.93,0-.44.12-1,.6-.91,1.13.22,2.44-.25,3.37.78.27.3.64.58.96.26,1.33-1.33,3.24-1.16,4.83-1.82,1.04-.43,2.24.48,3.39.73.52.11,1.02.41,1.5-.08.43-.43.09-.85,0-1.27-.06-.28-.14-.56-.14-.85,0-.43.48-.96-.01-1.25-.55-.32-1.16.01-1.6.39-1.29,1.09-2.85,1.27-4.43,1.27-1.96,0-2.54-.92-1.84-2.7.69-1.75,2.14-2.54,3.79-3.12.42-.15,1.22-.09,1.12-.69-.08-.49-.79-.22-1.21-.17-2.65.32-4.61-1.07-6.47-2.63-.67-.56-1.02-1.48-.68-2.37.33-.87,1.22-.67,1.95-.75,1.93-.22,3.69.17,5.28,1.34.4.3.98.73,1.46.27.41-.4-.18-.81-.31-1.21-.51-1.59-.55-3.26-.76-4.89-.14-1.06.77-.82,1.29-.57,2.33,1.12,4.72,2.2,4.85,5.36.03.68.54.58.83.16.6-.85,1.13-1.76,1.37-2.76.24-.99-.58-1.76-1.28-1.81-1.06-.08-1.77-.9-2.79-.92-.35,0-.58-.28-.67-.64-.15-.59-.53-.92-1.14-.98-.34-.03-.56-.2-.56-.54,0-.67-.39-1-.92-1.34-.8-.51-.74-1.26.14-1.56,1.75-.6,3.51-.95,5.29,0,.57.3,1.24.45,1.88.62.47.13.96.05,1.22-.39.25-.43.15-1-.24-1.24-1.96-1.22-2.04-3.63-3.4-5.23-.47-.55-.48-1.42-.02-1.97.45-.55,1.28-.32,1.72.03,2.3,1.88,5.14,3.34,5.67,6.72.04.24.08.49.18.72.16.4.41.75.91.69.59-.07.54-.56.52-.96-.1-2.31.07-4.61.21-6.91.04-.62.08-1.38.81-1.51.7-.12.9.62,1.15,1.12.45.89.96,1.73,1.57,2.52,1.26,1.65.83,3.49.31,5.22-.33,1.08-.5,2.26-1.2,3.22-.19.27-.31.75.01.89.42.18.39-.39.6-.6,1.23-1.24,1.61-3.2,3.43-3.97.77-.33.58-.89-.05-1.15-.97-.4-1.3-1.18-1.58-2.07-.18-.59-.39-1.21-.75-1.69-1.27-1.69-1-3.69-1.25-5.59-.13-.99.47-1.19,1.23-.81,1.88.92,3.38,2.22,3.96,4.34.11.39.12.92.63.94.46.02.49-.47.62-.81.82-2.15,2.61-3.32,4.45-4.45.33-.21.7-.19.76.26.14,1.04.62,1.95.66,3.08.05,1.47-.32,2.44-1.38,3.29-.19.16-.32.4-.2.66.16.34.51.31.76.22,1.06-.36,2.05-.81,3.11.17.43.4.56-.25.54-.61-.05-.76-.44-1.42-.79-2.07-.86-1.59-.88-3.24-.38-4.94.17-.58.31-.76,1.01-.38,2.15,1.17,3.55,2.75,3.75,5.29.12,1.48,1.67,1.7,2.56,2.43,1.26,1.04,2.02,2.49,1.53,4.04-.08.24-.16.47-.24.71-.57,1.8-.18,2.4,1.73,2.64.9,1.16.87,3.15,2.93,3.27.18.01.31.37.5.14.07-.09-.04-.38-.14-.53-.86-1.22-1.84-2.31-3.22-2.96-.73-1.28-1.34-2.55.32-3.64.29-.19.32-.43-.11-.61-.73-.3-1.17-.94-1.43-1.64-.46-1.23-1.19-2.19-2.17-3.09-1-.92-1.15-2.33-1.12-3.67.02-.65.43-.83,1.04-.58,2.01.83,3.84,1.89,5.28,3.58.81.95.82,2.13,1.14,3.23.23.78.32,1.64,1.12,2.13.44-.75-.05-1.45-.12-2.18-.17-1.91-.88-3.81-.11-5.75.17-.42.25-.97.75-1.05.58-.09.44.61.71.85.9.82,2,1.49,2.02,2.92,0,.07.29.22.39.18.31-.11.42-.42.4-.7-.09-2.06.97-3.73,1.84-5.46.18-.36.45-.69.71-1.01.22-.26.53-.43.88-.35.46.1.35.51.35.82,0,.47.06.92.31,1.31,1.25,1.92.96,3.84.02,5.77-.1.2-.42.44-.18.64.23.19.38-.21.59-.28,2.31-.73,3.32-2.92,4.93-4.43.56-.52,1.18-.71,1.87-.87.81-.18,1.13.27,1.53.88.37.57,1.09.78,1.62,1.33,1.93,2.04,2.32,4.55,2.74,7.1.04.26-.18.64.2.76.4.12.57-.26.74-.53.45-.74.82-1.54,1.34-2.23.6-.8,1.31-.98,1.69.2.6,1.86,1.28,3.55.68,5.76-.56,2.03-1.75,3.43-2.81,5.02-.11.17-.43.33-.63.3-1.56-.17-1.99,1.07-2.54,2.06-.35.63.3,1.05.68,1.45.48.5.91,1.12,1.69,1.15.11,0,.34-.3.34-.46-.14-2.88,1.59-4.89,3.21-6.96.18-.22.32-.5.4-.77.33-1.18.83-1.65,1.97-.71.69.57,1.12.2,1.01-.6-.33-2.48,1.62-3.97,2.55-5.89.47-.97,1.25-.58,1.76.31,1.65,2.88,1.43,5.59-.65,8.16-.07.09-.15.18-.22.27-.2.12-.26.3-.23.52-.23.08-.26.28-.26.48-.68,1.06-1.54,1.86-2.77,2.33-.9.34-1.71,1.04-1.84,2.04-.3,2.26-1.56,3.5-3.69,4.12-1.3.38-1.74,1.61-1.14,2.66.2.36.5.7.86.32.99-1.03,2.53-1.38,3.17-2.86.49-1.13,1.42-1.81,2.78-1.63.51.07,1.01-.18,1.05-.67.16-2.2,1.19-4.16,1.63-6.28.21-.11.24-.3.24-.51.21-.07.28-.25.3-.45.09-.08.18-.15.27-.23,1.02-.43,1.58-1.31,2.09-2.21.3-.52.47-.5.9-.12,1.27,1.13,1.92,4.95,1.11,7.02-.69,1.75-1.7,3.18-3.61,3.83-.92.31-1.88.74-2.26,1.79-.11.31-.19.7.13.91.28.19.54-.08.77-.25.1-.07.19-.23.28-.23,3.12,0,3.25-3.12,4.82-4.71,1.46-1.47,2.73-2.96,4.95-3.21.83-.09,1.51-.63,2.14-1.19.31-.27.75-.47,1.14-.26.33.18.22.61.18.92-.29,2.24.35,4.45.25,6.68-.13,3.03-1.68,5.18-4.22,6.71-.51.31-1.23.41-1.29,1.19,0,.12.14.36.24.37.67.07,1.2-.29,1.66-.69.4-.35.75-.77,1.09-1.19.55-.67,1.11-1.27,2.09-.83.04.02.09.04.12.03,2.06-1.13,2.01.83,2.67,1.8,1.32,1.95,2.11,4.05,2.08,6.45,0,.63-.14,1.12-.53,1.58-.22.26-.69.55-.36.92.25.28.58-.13.87-.23,2.66-.85,5.28-1.98,8.12-.57.63.31.9.34.42,1.16-1.93,3.3-4.94,4-8.4,3.77-.35-.02-.77-.27-1,.19-.21.41.09.72.34.98,1.27,1.28.61,2.9.81,4.37-.3-.22-.59-.44-.89-.65-1.88-1.26-4.36-1-5.87.62-1.52,1.62-1.65,4.14-.32,5.91,1.39,1.85,3.62,2.23,6.22,1.05.26.36.66.28,1.02.31.58.04,1.21.02,1.32.8.1.73-.27,1.2-.9,1.46-1.72.72-3.44,1.42-5.35,1.43-.29,0-.58,0-.87.03-.33.04-.67.14-.81.49-.17.42.07.72.35.98.79.73,1.63,1.4,2.37,2.18.81.85.58,1.48-.56,1.73-.72.16-1.46.25-2.19.43-.48.12-1.04.09-1.3-.21-1.17-1.37-2.97-1.93-4.1-3.35-1.5-1.9-4.47-1.43-5.45.84-.35.81-.03,1.54.57,2.14.79.81,1.78,1.34,2.74,1.91.35.21.79.41.7.91-.09.48-.41.75-.92.88-2.65.7-5.15.66-7.39-1.18-.52-.42-1.13-.85-1.81-.54-.73.33-.45,1.1-.42,1.67.07,1.39-.86,2.38-1.31,3.56-.09.23-.2.47-.37.64-.66.71-.56,2.52-2.06,1.95-1.15-.44-1.18-1.94-1.49-3.06-.12-.45.24-1-.27-1.38.69-1.07.43-3.2-.47-3.91.22-.58-.13-.73-.6-.78-.74-.08-1.47-.16-2.21-.22-1.05-.08-2.1-.27-2.79-1.11-.51-.61-1.11-.8-1.82-.87-.33-.65-1.67-.79-1.2-1.76.42-.86,1.47-.44,2.26-.51.04,0,.08,0,.12,0,.98.07,1.84-.31,2.68-.74,1.24-.62,1.35-1.2.39-2.21-.25-.26-.58-.44-.87-.66-.69-.91-1.18-1.87-.85-3.08.21-.78-.27-.45-.61-.32-1.21.43-1.5,1.65-2.17,2.54-.71-.16-1.42-.36-2.15-.46-.76-.11-1.01-.5-.81-1.19.19-.66.28-1.27-.19-1.87-.12-.16-.07-.46-.1-.69,1.24-.13,1.11-1.34,1.66-1.97.58-.67,1.51-1.1,2.24-1.76.78-.69.51-1.01-.04-1.4-.49-.35-1.09-.56-1.64-.83-.45-.56-.89-1.13-1.34-1.69,1.17-3.83-.42-6.4-4.21-6.8-.87-1.28-1.28-2.74-1.74-4.19-.06-.2-.1-.55-.41-.49-.13.02-.23.3-.3.48-.69,1.76-.96,3.57-.63,5.44-.29.36-.57.73-.86,1.09-1.68-.48-2.72-1.93-4.17-2.76-.58-.75-1.4-1.15-2.26-1.43-.32-.1-.73-.35-1.04-.04-.36.35-.15.8.03,1.15.95,1.86.98,3.79.48,5.76-.57.45-.83,1.11-1.07,1.73-.36.9-.8,1.12-1.59.53-1.37-1.13-1.13-3.11-2.32-4.37-.4-.42-.59-1.11-1.28-.75-.7.37-.29,1,.02,1.38,1.15,1.35,1.44,2.91,1.4,4.63-.02.94.13,1.9.32,2.82.24,1.21.18,2.3-.71,3.24-.75.31-1.34.86-1.75,1.52-.5.81-.95.66-1.33,0-1.31-2.24-3.42-4.25-2.14-7.25.34-.31.26-.68.09-1.03-.28-.6.52-1.15.06-1.75-.46.51-.92,1.02-1.38,1.53-2.25-.26-2.44.03-1.55,2.28.59,1.49,1.06,3.02,2.04,4.33.34.45.56,1.02.08,1.57-1.12-.08-2.24-.16-3.37-.24-.69-.41-1.13-1.06-1.6-1.68-.21-.28-.52-.43-.87-.26-.11.05-.2.37-.19.38,1.38.78-.28,1.85.3,2.85.51.88-.25,2.02-.26,3.07-.49,1.1-1.04,2.18-1.47,3.3-.3.77-.76.9-1.43.61-.65-.28-.95-.87-1.22-1.47,2.13-1.66,2.81-3.66,1.97-5.72-.86-2.11-2.77-3.1-5.39-2.66-.99.17-.65-.4-.61-.85.19-2.19-1.08-4.11-3.12-4.81-1.46-.5-2.76-.03-4.07.5.11-.4.01-.71-.29-1-1.29-1.22-2.5-2.48-2.13-4.51.05-.28-.02-.78-.41-.79-.51-.01-.5.49-.47.84.09.87-.35,1.37-1.02,1.82-.47.31-.9.72-1.28,1.16-.3.35-.33.94.17,1.02,1.87.3,3.43,1.75,5.44,1.47-1.43,1.35-2.18,2.95-1.8,4.95-1.41-.46-2.96-.22-4.33-.9-.35-.17-.65,0-.51.51.26.92-.36,2.26,1.21,2.56.3,1.94,1.29.68,1.97.37.74-.34,1.41-.84,2.12-1.27,1.45,1.91,3.33,2.59,5.66,1.98.04.04.08.09.13.13-.32,2.31.49,4.1,2.45,5.37-.77,1.73-.68,1.88,1.25,1.92.61.01,1.23-.06,1.85-.12,1.68-.15,3.3.04,4.82.78,1.02.5,1.07,1.63.18,2.3-.29.22-.62.4-.93.59-1.51.73-2.97,1.59-4.73,1.66-.5.02-1.09-.11-1.52.33ZM42.36,39.86c-.49.1-.98.18-1.45.31-2.27.65-3.62,2.97-3.14,5.37.44,2.18,2.56,3.72,4.88,3.54,2.26-.18,4.01-2.11,4.09-4.4.08-2.2-1.19-3.5-2.89-4.54.65-.15.75-.47.22-.88-.4-.31-.9-.39-1.39-.34-.41.04-1.03-.3-1.18.2-.1.34.57.48.86.75ZM109.32,53.56c.13-.6,1.65-.35.96-1.28-.3-.4-.5-2.52-1.89-.75-.11.14-.48.05-.72.12-.76.24-2.21,2.07-1.89,2.4.67.69,1.45.12,2.19,0,.12-.02.25,0,.37,0-.23.28-.46.57-.7.84-1.47,1.66-1.51,4.26-.1,5.93,1.53,1.8,4.09,2.18,6.05.89,1.87-1.23,2.54-3.77,1.53-5.82-1.02-2.06-2.64-2.71-5.8-2.34ZM84.24,37.76c0-2.55-2.07-4.59-4.59-4.55-2.45.04-4.5,2.1-4.53,4.54-.03,2.46,2.1,4.6,4.59,4.61,2.54,0,4.55-2.03,4.54-4.6ZM91.5,49.85c2.57,0,4.58-1.98,4.6-4.53.02-2.47-2.13-4.62-4.6-4.59-2.46.03-4.5,2.08-4.53,4.52-.02,2.56,1.98,4.6,4.52,4.6ZM72.63,56.31c2.54,0,4.58-2.03,4.59-4.56,0-2.47-2.18-4.62-4.63-4.57-2.46.06-4.49,2.1-4.5,4.55-.01,2.56,1.99,4.58,4.54,4.58ZM101.63,63.24c2.48.02,4.67-2.13,4.65-4.55-.02-2.44-2.07-4.53-4.5-4.59-2.53-.06-4.62,1.96-4.64,4.5-.03,2.57,1.96,4.63,4.49,4.64ZM64.11,52.75c.02-2.57-1.97-4.62-4.5-4.63-2.51,0-4.61,2.07-4.61,4.57,0,2.47,2.12,4.59,4.61,4.58,2.47-.01,4.48-2.03,4.5-4.52ZM94.67,74.86c.02,2.54,2.11,4.58,4.62,4.53,2.44-.05,4.51-2.13,4.52-4.56.01-2.47-2.11-4.59-4.6-4.59-2.52,0-4.55,2.07-4.53,4.61ZM37.51,86.97c0-2.58-1.98-4.57-4.53-4.56-2.57,0-4.51,2-4.49,4.6.02,2.52,1.96,4.49,4.46,4.53,2.51.04,4.56-2.01,4.56-4.57ZM22.32,62.84c0,2.55,2.03,4.57,4.57,4.58,2.39,0,4.51-2.12,4.54-4.53.03-2.49-2.05-4.59-4.56-4.6-2.55-.02-4.56,2-4.55,4.56ZM57.17,35.98c.01-2.61-1.91-4.56-4.5-4.56-2.55,0-4.49,1.9-4.52,4.42-.03,2.63,1.85,4.58,4.44,4.61,2.62.03,4.56-1.88,4.58-4.47ZM42.36,54.56c1.5-.17,2.9.19,4.13,1.17.37.29.81.5,1.25.2.34-.23.19-.6.05-.9-.25-.52.01-.78.38-1.14,1-.97-.04-1.68-.44-2.44-.28-.53-.71-.32-1.06-.08-2.3,1.59-4.64,1.31-7.02.23-.56-.25-1.16-.43-1.74-.63-.29-.1-.59-.08-.79.18-.23.28-.06.55.12.78.36.47.72,1.02.64,1.57-.21,1.43.73,1.39,1.6,1.3.94-.09,1.87-.31,2.88-.23ZM57.63,44.55c-.17-.41.4-1.23-.26-1.55-.73-.35-1.29.34-1.78.84-.81.83-1.76.79-2.75.48-.71-.22-1.4-.52-2.13-.65-1.18-.21-2.04.14-2.16,1.53-.1,1.07-.28,2.12-.37,3.19-.03.33-.22.82.2.99.34.13.54-.3.74-.54.73-.86,1.44-1.73,2.77-1.53.21.03.51-.11.66-.27.88-.95,1.95-.92,3.09-.68,1.94.41,1.94.4,1.99-1.81ZM89.97,35.61c.03-.59-.4-.76-.85-.9-1.66-.53-3.15-1.33-4.25-2.74-.15-.2-.59-.69-.7-.26-.17.69-1.28,1.54.06,2.23.11.06.22.3.2.44-.3,1.98,2.38,1.87,2.51,3.55,0,.08.36.17.55.18.84.03,2.48-1.64,2.48-2.49ZM96.2,54.74c-.12-.89.39-1.78-1.22-1.46-.74.15-1.06,0-.76.71.66,1.54,0,3-.06,4.49-.02.52-.3.61-.75.51-.22-.05-.45-.41-.64-.17-.21.26.07.55.23.77.26.37.57.7.89,1.03.37.38.75.87,1.37.59.5-.23.6-.77.63-1.27.11-1.8-.16-3.63.32-5.2ZM67.15,49.08c.84.01,1.05-.47.75-1.2-.31-.78-.85-1.41-1.47-1.98-.53-.49-1.09-.72-1.78-.28-.44.28-1.06.38-1.07,1.07-.01.81.49,1.26,1.16,1.61.74.38,1.53.62,2.4.78ZM54.25,62.05c.81-.11,1.25.1,1.67.38.22.15.52.49.74.17.29-.4-.19-.54-.42-.72-1.24-.95-2.58-1.8-2.7-3.6-.02-.27-.12-.78-.59-.56-.37.17-.71.54-.33.99.24.28.49.59.15.83-1,.72-.78,2.21-1.86,2.87-.08.05-.17.24-.14.31.1.21.29.09.4,0,1-.82,2.33-.12,3.09-.68ZM46.31,58.57c-.7.09-1.37.8-2.24,1.07-.34.11-.67.4-.58.85.09.45.47.57.86.55.99-.07,1.6.51,2.21,1.16.42.44.94.8,1.44,1.16.22.16.54.45.76.21.27-.3-.18-.47-.34-.67-.87-1.06-1.55-2.17-1.13-3.61.22-.75-.26-.73-.98-.71ZM106.17,65.5c.14-1.41-.2-1.66-1.4-1.04-.37.19-.75.32-1.17.34-.35.01-.65.16-.72.55-.07.4.17.66.51.74,1.06.24,1.68.75,1.51,1.97-.06.4.24.86.73.82.47-.05.41-.54.44-.9.05-.82.08-1.64.11-2.47ZM91.45,28.34c-.1-.84-.55-1.64-.61-2.57-.02-.42-.43-.26-.59.04-.68,1.32-1.97,1.81-3.18,2.42-.29.15-.88.08-.73.61.11.4.55.23.86.14,1.21-.34,2.4-.47,3.61.08.65.3.63-.24.64-.73ZM120.5,55.71c-.12-.74-.68-.73-1.2-.56-.38.12-.7.43-1.04.66-.49.34-1.39.37-1.39,1.07,0,.79.9.97,1.45,1.38.13.1.29.18.45.21.35.08.73.46,1.04.2.38-.31-.17-.54-.24-.83-.08-.34.14-.52.28-.77.24-.42.43-.88.65-1.36ZM85.94,49.55c.02,1.09.78,2.23,2.01,3.06.23.15.46.44.77.23.32-.22.27-.6.14-.9-.38-.91-.78-1.82-1.22-2.71-.22-.45-.38-1.15-1.07-.94-.59.18-.65.79-.62,1.27ZM61.31,39.38c.16,0,.33.02.49,0,.51-.07,1.32,0,1.38-.47.08-.62-.73-.6-1.22-.75-.51-.15-1.07-.1-1.05-1,0-.54-.85-.5-1.34-.65-.23-.07-.36.09-.42.33-.34,1.36.7,2.6,2.15,2.55ZM114.6,44.14c-.72.34-1.52.63-2.37.82-.44.1-.42.71.03.81.76.17,1.01.66,1.34,1.27.32.59.93.41,1.1-.18.21-.74.18-1.53.52-2.26.15-.32-.21-.48-.62-.47ZM78.55,30.06s-.2.34.11.41c.39.09.59-.29.73-.56.77-1.49.95-3.38,2.85-4.09.06-.02.1-.13.13-.2.09-.19.17-.42-.03-.56-.09-.06-.31,0-.44.08-1.85,1.04-3.27,2.4-3.36,4.92ZM73.94,45.21c.49-.12,1.13-.09,1.25-.65.12-.6-.56-.45-.89-.6-.29-.13-.4-.42-.6-.56-.56-.38-1.23-.74-1.89-.57-.28.07-.08.8.12,1.11.46.72,1.17,1.13,2.01,1.27ZM62.96,29.51c-.59.66-1.64,1.33-1.61,1.94.04.88,1.34.07,2,.62.37.3.91-.15.92-.65.03-.88-.69-1.32-1.31-1.9ZM35.82,46.34c.55-.03,1.09-.17,1.37-.77.1-.22.18-.56-.05-.68-.47-.22-.82.2-1.22.38-.11.05-.23.07-.35.1-.29.07-.78-.11-.74.39.04.51.51.56.99.58ZM117.28,66.17c.4-.07.49-.37.44-.65-.14-.8-.69-1.29-1.42-1.53-.27-.09-.23.28-.21.45.11.77.48,1.37,1.19,1.72ZM115.3,80.18c.25-.16,1.04.2.93-.46-.14-.91-1.19-.38-1.75-.75-.24-.16-.59.11-.57.44.06.81.69.77,1.39.77ZM111.17,78.71c-.3,0-.55.06-.53.38.03.49.39.7.82.73.29.02.6-.12.58-.48-.04-.53-.53-.51-.87-.63Z" style="fill:#9acfb5; stroke-width:0px;"></path><path d="M85.41,66.56c.45.56.89,1.13,1.34,1.69-.28.75-.65,1.54-1.39,1.83-2.23.87-3.23,2.9-4.11,4.76-2.02,4.29-3.62,8.78-4.63,13.43-.28,1.3-.14,2.72-.06,4.07.07,1.15.82,1.87,1.95,2.12,1.16.26,2.01-.23,2.64-1.17.68-1.02.69-2.18.64-3.35-.03-.66-.13-1.32.2-1.95,1.74-3.3,2.96-6.92,5.77-9.58.67-.89.96-2.11,2.17-2.54.34-.12.82-.46.61.32-.33,1.21.16,2.17.85,3.08-.81,1.16-1.63,2.3-2.2,3.6-.04,0-.08-.01-.12,0-.79.06-1.84-.35-2.26.51-.47.97.87,1.11,1.2,1.76-1,2.14-1.52,4.44-2.22,6.67-.36,1.15.18,1.7,1.25,1.2,2.93-1.38,5.84-2.84,8.39-4.89.9.71,1.16,2.84.47,3.91-1.09,1.35-2.63,2.06-4.06,2.98-4.46,2.88-8.7,6.06-9.01,12.07-.13,2.52.52,4.81,1.62,7.13,1.66,3.5,4.74,4.3,7.98,5.02,2.03.45,3.97,1.14,5.87,1.98.34.15.66.36.94.6.58.51,1.42,1.07.88,1.93-.48.77-1.33.25-1.9-.04-1.7-.85-3.31-.98-5.11-.16-1.07.49-2.37.03-3.57.06-.69.02-1.54-.11-1.87.66-.35.83.36,1.37.88,1.87.6.57,1.27,1.06,1.88,1.61.28.25.55.58.4.98-.14.35-.53.33-.86.37-1.28.16-2.45-.04-3.54-.81-.98-.69-2.06-1.24-3.01-1.96-1.31-.98-2.7-.78-4.13-.5-.37.07-.64.27-.7.61-.17,1.04-1.08,1.17-1.82,1.45-.72.27-1.33.22-.92-.82.16-.41.12-.64-.33-.71-.75-.13-1.39.09-1.91.65-.53.56-.26,1.1.13,1.56,1.07,1.27.18,2.73.43,4.08.07.36-.31.44-.62.39-.84-.13-1.7-.33-2.12-1.12-.58-1.08-1.45-1.91-2.26-2.78-.49-.53-.8-1.09-.89-1.85-.19-1.53-1.54-2.48-3.45-2.61-3.79-.26-7.31.6-10.51,2.64-1.24.79-2.58.46-3.86.55-.65.05-.34-.68,0-.86,1.83-.99,2.77-2.81,4.13-4.24,1.54-1.62,3.36-2.65,5.69-2.6,4.62.1,7.1-3.37,7.36-7.1.42-6.13-1.96-11.32-5.93-15.68-2.28-2.5-5.16-4.5-8.73-5.13-2.62-.46-5.16-1.2-7.3-2.9.43-.44,1.02-.31,1.52-.33,1.76-.08,3.22-.93,4.73-1.66,1.3.87,2.67,1.53,4.29,1.03,1.28-.39,1.86-1.9.96-2.85-1.74-1.84-2.75-4.1-3.97-6.25.01-1.05.77-2.19.26-3.07-.58-1,1.08-2.07-.3-2.85,0,0,.09-.32.19-.38.35-.18.65-.02.87.26.48.62.92,1.27,1.6,1.68.38,3.96,2.62,6.68,5.93,8.59,1.22.7,1.99.09,1.88-1.31-.03-.47-.21-.88-.48-1.25-1.39-1.88-2.29-4.1-3.96-5.79.48-.55.26-1.12-.08-1.57-.98-1.31-1.44-2.85-2.04-4.33-.9-2.25-.7-2.54,1.55-2.28.41.42.82.83,1.23,1.25-1.28,3,.84,5.02,2.14,7.25.38.65.82.8,1.33,0,.41-.66,1-1.21,1.75-1.52.08.19.15.39.25.57.32.55.48,1.51,1.21,1.37.74-.14.56-1.09.61-1.72.22-2.39.05-4.8.51-7.17.79.6,1.23.37,1.59-.53.25-.62.51-1.29,1.07-1.73.3.52.47,1.25,1.25,1.19.67-.06.92-.65,1.09-1.21.1-.31.18-.64.2-.97.1-1.48.17-2.97.25-4.46,1.45.83,2.49,2.28,4.17,2.76-.32,1.11-.71,2.21-.37,3.39.52,1.84,1.7,3.03,3.57,3.39,2.17.43,3.75-.58,4.95-2.31ZM76.53,76.12c-.17-2.42-.31-4.57-1.56-6.45-.81-1.21-1.38-1.23-2.05,0-.67,1.23-1.31,2.5-1.77,3.82-.56,1.61-.84,3.3-.35,5,.4,1.42,1.74,2.42,3.14,2.35,1.5-.08,1.98-1.21,2.27-2.41.21-.84.24-1.71.32-2.32Z" style="fill:#038b57; stroke-width:0px;"></path><path d="M124.4,77.4c-2.61,1.17-4.84.8-6.22-1.05-1.33-1.78-1.2-4.29.32-5.91,1.52-1.62,3.99-1.88,5.87-.62.31.2.6.43.89.65,0,0-.02-.01-.02-.01.06.09.12.18.19.27,1.52,2.72,1.24,4.49-1.03,6.68Z" style="fill:#ee4e51; stroke-width:0px;"></path><path d="M125.43,70.72c-.06-.09-.12-.18-.19-.27.06.09.12.18.19.27Z" style="fill:#9acfb5; stroke-width:0px;"></path><path d="M37.85,68.2c1.31-.53,2.61-1,4.07-.5,2.05.7,3.32,2.62,3.12,4.81-.04.44-.38,1.01.61.85,2.62-.44,4.52.55,5.39,2.66.85,2.07.16,4.06-1.97,5.72-1.42.67-2.86.61-4.32.15-1.97-1.27-2.78-3.06-2.45-5.37.02-.07.03-.13.05-.2-.06.03-.12.05-.18.08-2.33.61-4.21-.07-5.66-1.98.03-.49.07-.98-.46-1.26-.38-2.01.37-3.6,1.8-4.95,0,0,0,0,0,0Z" style="fill:#ee4e51; stroke-width:0px;"></path><path d="M85.41,66.56c-1.2,1.73-2.78,2.74-4.95,2.31-1.87-.37-3.05-1.55-3.57-3.39-.34-1.19.06-2.28.37-3.39.29-.36.57-.73.86-1.09.93-.66,1.92-1.16,3.08-1.24,3.79.4,5.38,2.98,4.21,6.8Z" style="fill:#ee4e51; stroke-width:0px;"></path><path d="M84.24,37.76c0,2.57-2,4.6-4.54,4.6-2.48,0-4.62-2.15-4.59-4.61.03-2.44,2.09-4.5,4.53-4.54,2.52-.04,4.58,2,4.59,4.55Z" style="fill:#ee4e51; stroke-width:0px;"></path><path d="M91.5,49.85c-2.55,0-4.55-2.04-4.52-4.6.02-2.44,2.07-4.49,4.53-4.52,2.47-.03,4.62,2.11,4.6,4.59-.02,2.55-2.04,4.54-4.6,4.53Z" style="fill:#ee4e51; stroke-width:0px;"></path><path d="M72.63,56.31c-2.55,0-4.56-2.02-4.54-4.58.01-2.45,2.04-4.49,4.5-4.55,2.45-.05,4.63,2.1,4.63,4.57,0,2.53-2.04,4.56-4.59,4.56Z" style="fill:#ee4e51; stroke-width:0px;"></path><path d="M101.63,63.24c-2.53-.02-4.52-2.07-4.49-4.64.03-2.53,2.11-4.56,4.64-4.5,2.42.06,4.47,2.14,4.5,4.59.02,2.42-2.17,4.57-4.65,4.55Z" style="fill:#ee4e51; stroke-width:0px;"></path><path d="M64.11,52.75c-.02,2.49-2.03,4.51-4.5,4.52-2.49.01-4.62-2.1-4.61-4.58,0-2.49,2.11-4.58,4.61-4.57,2.53,0,4.52,2.06,4.5,4.63Z" style="fill:#ee4e51; stroke-width:0px;"></path><path d="M94.67,74.86c-.02-2.55,2.01-4.62,4.53-4.61,2.49,0,4.62,2.12,4.6,4.59-.01,2.42-2.08,4.51-4.52,4.56-2.51.05-4.6-1.99-4.62-4.53Z" style="fill:#ee4e51; stroke-width:0px;"></path><path d="M109.32,53.56c3.16-.37,4.78.28,5.8,2.34,1.01,2.04.34,4.58-1.53,5.82-1.96,1.29-4.52.91-6.05-.89-1.41-1.66-1.37-4.27.1-5.93.24-.27.47-.56.7-.84h0c.23.04.4-.04.5-.26h0c.22.02.41-.02.51-.24h-.02Z" style="fill:#ee4e51; stroke-width:0px;"></path><path d="M37.51,86.97c0,2.56-2.05,4.61-4.56,4.57-2.5-.04-4.44-2.01-4.46-4.53-.02-2.6,1.92-4.59,4.49-4.6,2.55,0,4.53,1.98,4.53,4.56Z" style="fill:#ee4e51; stroke-width:0px;"></path><path d="M43.85,40.14c1.7,1.05,2.97,2.34,2.89,4.54-.08,2.29-1.83,4.22-4.09,4.4-2.32.18-4.44-1.35-4.88-3.54-.48-2.4.87-4.72,3.14-5.37.48-.14.97-.21,1.45-.31.17.01.33.03.5.04.29.25.63.26.98.23h0Z" style="fill:#ee4e51; stroke-width:0px;"></path><path d="M22.32,62.84c0-2.56,2.01-4.57,4.55-4.56,2.51.02,4.59,2.12,4.56,4.6-.03,2.41-2.16,4.53-4.54,4.53-2.54,0-4.56-2.03-4.57-4.58Z" style="fill:#ee4e51; stroke-width:0px;"></path><path d="M57.17,35.98c-.01,2.6-1.96,4.5-4.58,4.47-2.59-.03-4.47-1.98-4.44-4.61.03-2.53,1.97-4.42,4.52-4.42,2.59,0,4.52,1.95,4.5,4.56Z" style="fill:#ee4e51; stroke-width:0px;"></path><path d="M42.18,76.39c.06-.03.12-.05.18-.08-.02.07-.03.13-.05.2-.04-.04-.08-.08-.12-.13Z" style="fill:#9acfb5; stroke-width:0px;"></path><path d="M108.34,54.06c.07-.26.26-.3.5-.27-.1.22-.27.3-.5.27Z" style="fill:#9acfb5; stroke-width:0px;"></path><path d="M108.82,53.8c.09-.24.28-.3.51-.25-.1.22-.29.26-.51.25Z" style="fill:#9acfb5; stroke-width:0px;"></path><path d="M42.86,39.91c.36-.04.7-.05.98.23-.35.03-.7.02-.98-.23Z" style="fill:#9acfb5; stroke-width:0px;"></path><circle cx="72.59" cy="72.59" r="66.51" style="fill:none; stroke:#ee4e51; stroke-miterlimit:10; stroke-width:4px;"></circle></g></svg>